<svg width="165" height="297" viewBox="0 0 165 297" fill="none" xmlns="http://www.w3.org/2000/svg">
<path d="M106.505 271.164C78.4489 268.187 71.3285 209.603 70.2657 160.907C70.2657 160.269 70.2657 159.631 70.1595 158.993C66.0148 115.507 64.6332 98.1768 64.2081 91.6911C64.1018 89.7773 64.1018 87.8635 64.4206 85.9497C66.3336 72.6594 78.13 5.88876 121.384 0.253662C122.978 0.0410164 124.572 0.0410156 126.06 0.0410156C136.049 0.572629 144.339 4.50657 150.503 11.7365C166.869 30.6619 165.275 66.7053 163.787 81.3778C163.468 84.1422 162.831 86.8003 161.768 89.2457C158.686 96.582 151.247 115.082 149.971 129.223C148.377 146.341 149.44 204.712 149.546 211.304C149.546 212.048 149.546 212.686 149.546 213.431C149.227 218.959 145.402 267.336 110.862 271.057C110.119 271.164 109.268 271.164 108.524 271.164C107.781 271.27 107.143 271.164 106.505 271.164ZM121.596 1.95482C79.6178 7.37728 68.034 73.0847 66.121 86.1624C65.9085 87.9699 65.8022 89.7773 65.9085 91.5848C66.3336 98.0705 67.7151 115.401 71.8598 158.887C71.8598 159.525 71.9661 160.269 71.9661 160.907C73.0289 208.859 79.9367 266.592 106.611 269.463C107.993 269.569 109.268 269.569 110.65 269.463C143.701 265.848 147.421 218.747 147.74 213.431C147.74 212.793 147.74 212.155 147.74 211.517C147.633 204.925 146.571 146.447 148.165 129.223C149.44 114.869 156.879 96.0504 160.067 88.7141C161.024 86.375 161.662 83.8233 161.98 81.2715C163.043 70.0013 165.487 31.8315 149.121 12.9061C143.276 6.10141 135.412 2.38012 125.847 1.8485H124.678C123.722 1.74218 122.659 1.8485 121.596 1.95482Z" fill="#FFED00"/>
<path d="M109.693 264.04C112.35 264.04 115.007 263.402 117.345 262.338C118.514 261.807 118.514 261.807 119.258 261.594C127.229 258.617 132.649 253.514 135.518 246.177C143.276 226.401 129.885 195.036 121.171 178.025C115.751 167.286 112.456 155.59 111.606 143.576L109.906 120.929C109.906 120.717 108.737 111.892 133.711 99.6648C156.348 89.5641 162.724 82.3342 164.106 77.975C164.531 76.9117 164.531 75.6359 164.106 74.4663C163.893 74.041 163.362 73.9347 162.937 74.1473C162.512 74.36 162.405 74.8916 162.618 75.3169C162.83 76.0612 162.83 76.9117 162.405 77.656C161.236 80.8457 155.816 87.863 132.967 98.0699C106.505 111.041 108.099 120.717 108.205 121.142L109.8 143.682C110.65 155.909 114.051 167.818 119.577 178.769C128.079 195.462 141.257 226.295 133.818 245.433C131.161 252.238 126.06 257.129 118.62 259.787C117.77 260.106 117.77 260.106 116.601 260.637C113.732 261.913 107.993 263.508 102.467 260.212C94.3898 255.321 89.3949 242.137 87.6945 220.766C86.1004 200.778 85.1439 186.637 84.4 176.217C83.0185 157.292 82.5934 150.168 81.1055 141.875C80.6804 139.642 80.3616 136.984 80.0428 134.007C78.1298 119.866 75.5793 100.409 65.6958 96.3688C65.2707 96.1561 64.7393 96.3688 64.5268 96.9004C64.3142 97.3257 64.5268 97.8573 65.0581 98.0699C74.0914 101.791 76.5357 120.61 78.3424 134.326C78.7675 137.197 79.0863 139.961 79.5114 142.194C80.893 150.381 81.4243 157.398 82.6996 176.323C83.4435 186.743 84.4 200.884 85.9941 220.873C87.6945 242.775 92.902 256.491 101.51 261.594C104.167 263.189 106.93 264.04 109.693 264.04Z" fill="#FFED00"/>
<path d="M139.663 85.949C135.199 84.8858 131.798 81.0582 131.373 76.38L130.417 66.3857C130.311 65.6414 130.311 64.8971 130.098 64.2592C129.673 61.4948 128.716 51.9258 133.711 45.9717C136.368 42.782 140.3 41.1872 145.402 41.0809C152.734 40.9745 158.154 42.6757 161.449 45.9717C163.256 47.6729 164.318 49.9056 164.425 52.3511L164.531 78.0812C164.531 78.2938 164.425 78.5064 164.318 78.6128C159.536 83.7163 152.841 86.587 145.827 86.6933C143.807 86.7996 141.682 86.4806 139.663 85.949ZM162.724 52.3511C162.512 50.3309 161.662 48.5235 160.174 47.1413C157.304 44.2706 152.203 42.6757 145.402 42.782C140.832 42.8884 137.431 44.2705 135.093 47.0349C130.629 52.3511 131.48 61.2822 131.905 63.9402C132.011 64.6845 132.117 65.4288 132.224 66.2793L133.18 76.2737C133.605 80.2076 136.368 83.3973 140.194 84.3542C148.377 86.3743 156.985 83.9289 162.937 77.8685L162.724 52.3511Z" fill="#FFED00"/>
<path d="M75.4732 99.9837C77.2799 99.8774 79.0866 99.4521 80.6807 98.4952C80.9995 98.2825 81.3183 98.1762 81.6371 98.0699C84.294 97.0067 93.5399 89.883 89.5015 74.8916C88.9701 72.6588 87.8011 70.5323 86.2069 68.8312C84.4003 66.7047 81.6372 65.5352 78.874 65.5352C72.7101 65.6415 67.2901 71.5955 67.0776 71.9145C66.7588 72.2335 66.7588 72.7651 67.1839 73.0841C67.5027 73.403 68.034 73.403 68.3529 72.9777C68.3529 72.9777 73.454 67.3426 78.874 67.2363C81.2121 67.2363 83.4438 68.1932 84.9316 70.0007C86.3132 71.4892 87.2697 73.2967 87.8011 75.3168C91.5207 89.1388 83.3376 95.5181 80.9995 96.475C80.6807 96.5814 80.2556 96.794 79.9368 96.9003C76.7485 98.3889 71.9662 100.622 65.9086 89.883C65.696 89.4578 65.1646 89.3514 64.7395 89.5641C64.3144 89.7767 64.2082 90.3083 64.4207 90.7336C68.5654 98.0699 72.3913 99.9837 75.4732 99.9837Z" fill="#FFED00"/>
<mask id="mask0_1_10574" style="mask-type:luminance" maskUnits="userSpaceOnUse" x="64" y="0" width="100" height="271">
<path d="M106.611 270.314C99.3843 269.57 73.4534 265.211 71.1153 160.908C71.1153 160.27 71.1153 159.632 71.009 158.994C66.7581 114.658 65.4828 97.5397 65.0577 91.692C64.9514 89.8845 64.9514 87.9707 65.2702 86.1632C67.3957 71.7033 79.0859 6.63384 121.489 1.21139C122.977 0.998743 124.571 0.892419 126.059 0.998742C167.825 3.1252 164.637 64.367 162.936 81.3787C162.617 84.0367 161.98 86.5885 160.917 89.0339C157.729 96.4765 150.396 115.083 149.121 129.33C147.526 146.342 148.589 203.756 148.696 211.518C148.696 212.156 148.696 212.9 148.696 213.538C148.164 221.937 143.807 266.805 110.862 270.42C109.374 270.42 107.992 270.42 106.611 270.314Z" fill="white"/>
</mask>
<g mask="url(#mask0_1_10574)">
<path d="M0.65625 269.57C3.10056 178.345 40.8279 92.968 43.2722 1.74316C43.2722 1.31787 43.4847 0.998901 43.9098 0.892578H194.182C194.607 0.892578 194.819 1.31787 194.819 1.74316C195.882 91.3732 213.417 179.834 214.48 269.57C214.48 269.995 214.267 270.314 213.842 270.421H1.29389C0.868789 270.314 0.65625 269.995 0.65625 269.57ZM193.544 2.59374H44.5475C41.7844 93.1806 4.69467 178.132 1.93154 268.826H213.205C211.929 179.621 194.819 91.6921 193.544 2.59374Z" fill="#FFED00"/>
<path d="M43.6982 12.8H194.289C194.714 12.6937 194.926 12.3749 194.926 11.9498C194.926 11.5247 194.714 11.2059 194.289 11.0996H43.6982C43.2731 11.2059 43.0605 11.5247 43.0605 11.9498C43.0605 12.3749 43.2731 12.8 43.6982 12.8Z" fill="#FFED00"/>
<path d="M43.0587 23.1117H194.499C194.925 23.0054 195.137 22.6866 195.137 22.3678C195.137 21.9427 194.925 21.6239 194.499 21.5176H43.165C42.7399 21.6239 42.5273 21.9427 42.5273 22.3678C42.5273 22.7929 42.7399 23.1117 43.0587 23.1117Z" fill="#FFED00"/>
<path d="M42.2104 33.425H195.033C195.352 33.425 195.67 33.1062 195.564 32.5748C195.564 32.1497 195.352 31.8309 194.926 31.7246H42.3167C41.8916 31.8309 41.679 32.1497 41.679 32.5748C41.5728 33.1062 41.8916 33.425 42.2104 33.425Z" fill="#FFED00"/>
<path d="M41.0405 43.7394H195.563C195.882 43.7394 196.201 43.4206 196.095 42.8893C196.095 42.4642 195.776 42.1453 195.457 42.0391H41.253C40.9342 42.0391 40.6154 42.3579 40.5091 42.8893C40.4029 43.4206 40.7217 43.7394 41.0405 43.7394Z" fill="#FFED00"/>
<path d="M39.5524 54.052H196.094C196.413 54.052 196.626 53.7331 196.626 53.2018C196.626 52.7767 196.307 52.4578 195.988 52.3516H39.8712C39.4461 52.4578 39.1273 52.7767 39.1273 53.2018C39.021 53.7331 39.2336 54.052 39.5524 54.052Z" fill="#FFED00"/>
<path d="M37.9585 64.3664H196.945C197.264 64.3664 197.476 64.0476 197.476 63.5162C197.476 63.0911 197.157 62.7723 196.838 62.666H38.171C37.7459 62.7723 37.4271 63.0911 37.4271 63.5162C37.3208 63.9413 37.6396 64.3664 37.9585 64.3664Z" fill="#FFED00"/>
<path d="M36.0465 74.6789H197.796C198.115 74.6789 198.327 74.3601 198.327 73.8287C198.327 73.4036 198.008 73.0848 197.69 72.9785H36.3653C35.9402 73.0848 35.6214 73.4036 35.6214 73.8287C35.5151 74.2538 35.7277 74.6789 36.0465 74.6789Z" fill="#FFED00"/>
<path d="M34.027 84.8871H198.752C199.071 84.8871 199.283 84.5683 199.283 84.1432C199.283 83.7181 198.965 83.3992 198.646 83.293H34.3458C33.9207 83.3992 33.6019 83.7181 33.6019 84.1432C33.4956 84.5683 33.7081 84.8871 34.027 84.8871Z" fill="#FFED00"/>
<path d="M31.902 95.1984H199.709C200.028 95.1984 200.24 94.8796 200.24 94.3482C200.24 93.9231 199.922 93.6043 199.496 93.498H32.2208C31.7957 93.6043 31.4769 93.9231 31.4769 94.3482C31.3706 94.8796 31.5831 95.1984 31.902 95.1984Z" fill="#FFED00"/>
<path d="M29.6698 105.513H200.771C201.09 105.513 201.303 105.194 201.303 104.663C201.303 104.238 200.984 103.919 200.559 103.812H29.9886C29.5635 103.919 29.2447 104.238 29.1384 104.663C29.0321 105.194 29.2447 105.513 29.6698 105.513Z" fill="#FFED00"/>
<path d="M27.2242 115.825H201.833C202.152 115.825 202.364 115.507 202.364 114.975C202.364 114.55 202.045 114.231 201.62 114.125H27.6493C27.2242 114.231 26.9054 114.55 26.7991 114.975C26.6929 115.507 26.9054 115.825 27.2242 115.825Z" fill="#FFED00"/>
<path d="M24.8868 126.138H203.002C203.321 126.138 203.534 125.819 203.534 125.288C203.534 124.863 203.215 124.544 202.79 124.438H25.2057C24.7806 124.544 24.4617 124.863 24.3555 125.288C24.3555 125.819 24.4617 126.138 24.8868 126.138Z" fill="#FFED00"/>
<path d="M22.4432 136.452H204.172C204.491 136.452 204.81 136.134 204.704 135.602C204.704 135.177 204.385 134.858 203.96 134.752H22.762C22.3369 134.858 22.0181 135.177 21.9118 135.602C21.8056 136.027 22.0181 136.452 22.4432 136.452Z" fill="#FFED00"/>
<path d="M19.9982 146.766H205.234C205.553 146.766 205.872 146.447 205.766 145.916C205.766 145.491 205.447 145.172 205.022 145.172H20.317C19.8919 145.278 19.5731 145.597 19.4668 145.916C19.4668 146.341 19.5731 146.766 19.9982 146.766Z" fill="#FFED00"/>
<path d="M17.5543 156.972H206.297C206.616 156.972 206.935 156.653 206.829 156.122C206.829 155.697 206.51 155.378 206.085 155.271H17.9794C17.5543 155.378 17.2355 155.697 17.1292 156.122C17.0229 156.653 17.2355 156.972 17.5543 156.972Z" fill="#FFED00"/>
<path d="M15.215 167.286H207.359C207.678 167.286 207.996 166.968 207.89 166.542C207.89 166.542 207.89 166.542 207.89 166.436C207.89 166.011 207.571 165.692 207.146 165.586H15.5338C15.1087 165.692 14.7899 166.011 14.6836 166.436C14.6836 166.968 14.8961 167.286 15.215 167.286Z" fill="#FFED00"/>
<path d="M12.9842 177.599H208.529C208.848 177.599 209.166 177.28 209.06 176.749C209.06 176.324 208.741 176.005 208.316 175.898H13.3031C12.878 176.005 12.5591 176.324 12.4529 176.749C12.3466 177.28 12.5591 177.599 12.9842 177.599Z" fill="#FFED00"/>
<path d="M10.8592 187.912H209.486C209.805 187.912 210.123 187.487 210.017 187.169C210.017 186.743 209.698 186.425 209.273 186.318H11.1781C10.753 186.425 10.4341 186.743 10.3279 187.169C10.2216 187.594 10.4341 187.912 10.8592 187.912Z" fill="#FFED00"/>
<path d="M8.8397 198.226H210.336C210.654 198.226 210.973 197.907 210.973 197.482C210.973 197.482 210.973 197.482 210.973 197.376C210.973 196.95 210.654 196.632 210.229 196.525H9.15853C8.73343 196.632 8.41461 196.95 8.30833 197.376C8.20206 197.907 8.41461 198.226 8.8397 198.226Z" fill="#FFED00"/>
<path d="M7.03306 208.539H211.292C211.611 208.539 211.93 208.221 211.93 207.795C211.93 207.795 211.93 207.796 211.93 207.689C211.93 207.264 211.611 206.945 211.186 206.945H7.24561C6.82051 206.945 6.50169 207.37 6.50169 207.689C6.39542 208.114 6.60797 208.539 7.03306 208.539Z" fill="#FFED00"/>
<path d="M5.33164 218.852H211.929C212.354 218.852 212.566 218.427 212.566 218.108C212.566 217.683 212.248 217.364 211.822 217.258H5.65047C5.22537 217.364 4.90655 217.683 4.90655 218.108C4.80028 218.427 5.01282 218.852 5.33164 218.852Z" fill="#FFED00"/>
<path d="M3.95129 229.166H212.568C212.993 229.166 213.205 228.741 213.205 228.422C213.205 227.997 212.886 227.679 212.461 227.572H4.16384C3.73874 227.572 3.41992 227.997 3.41992 228.422C3.41992 228.741 3.5262 229.06 3.95129 229.166Z" fill="#FFED00"/>
<path d="M2.88764 239.373H213.098C213.523 239.373 213.736 238.948 213.736 238.629C213.736 238.204 213.417 237.886 213.098 237.779H2.99392C2.56882 237.886 2.25 238.204 2.25 238.629C2.25 239.055 2.46254 239.373 2.88764 239.373Z" fill="#FFED00"/>
<path d="M2.03714 249.686H213.523C213.948 249.686 214.161 249.261 214.161 248.942C214.161 248.517 213.842 248.198 213.523 248.092H2.14342C1.71832 248.092 1.3995 248.517 1.3995 248.942C1.29323 249.261 1.61204 249.686 2.03714 249.686C1.93087 249.686 1.93087 249.686 2.03714 249.686Z" fill="#FFED00"/>
<path d="M1.50589 259.998H213.842C214.267 259.998 214.479 259.573 214.479 259.254C214.479 258.829 214.267 258.511 213.842 258.404H1.50589C1.08079 258.404 0.868254 258.829 0.868254 259.254C0.76198 259.573 1.08079 259.998 1.50589 259.998Z" fill="#FFED00"/>
<path d="M172.927 270.314C173.352 270.314 173.564 269.889 173.564 269.57C171.12 180.259 162.299 91.1605 159.855 1.74316C159.855 1.31787 159.642 0.892578 159.324 0.892578C159.005 0.892578 158.898 1.21155 158.898 1.74316C161.343 91.1605 169.845 180.153 172.289 269.57C172.289 269.889 172.608 270.208 172.927 270.314Z" fill="#FFED00"/>
<path d="M164.744 270.314C165.169 270.314 165.382 269.889 165.382 269.57C163.15 180.259 156.348 91.1605 154.01 1.74316C154.01 1.31787 153.798 0.892578 153.585 0.892578C153.373 0.892578 153.16 1.21155 153.16 1.74316C155.392 91.0542 161.875 180.259 164.106 269.57C164.106 269.889 164.425 270.314 164.744 270.314Z" fill="#FFED00"/>
<path d="M156.666 270.313C156.985 270.313 157.304 269.994 157.304 269.463C155.285 180.151 150.715 90.9468 148.696 1.63574C148.696 1.21045 148.483 0.785156 148.271 0.785156C148.058 0.785156 147.846 1.10412 147.846 1.63574C149.865 90.9468 154.116 180.151 156.029 269.463C155.923 269.888 156.241 270.313 156.666 270.313Z" fill="#FFED00"/>
<path d="M148.485 270.313C148.91 270.313 149.122 269.888 149.122 269.463C147.422 180.151 145.084 90.9468 143.383 1.63574C143.383 1.21045 143.171 0.785156 142.958 0.785156C142.746 0.785156 142.533 1.10412 142.533 1.63574C144.234 90.8404 146.04 180.151 147.847 269.463C147.847 269.994 148.059 270.313 148.485 270.313Z" fill="#FFED00"/>
<path d="M140.301 270.314C140.726 270.314 140.939 269.889 140.939 269.57C139.557 180.365 139.663 91.0542 138.282 1.74316C138.282 1.31787 138.069 0.892578 137.857 0.892578C137.644 0.892578 137.432 1.21155 137.432 1.74316C138.707 90.9479 138.282 180.259 139.557 269.57C139.557 269.889 139.876 270.208 140.301 270.314Z" fill="#FFED00"/>
<path d="M132.117 270.314C132.542 270.314 132.755 269.889 132.755 269.57C131.798 180.259 134.349 91.0542 133.393 1.74316C133.393 1.31787 133.18 0.892578 132.968 0.892578C132.755 0.892578 132.542 1.21155 132.649 1.74316C133.499 91.0542 130.629 180.259 131.48 269.57C131.373 269.889 131.692 270.314 132.117 270.314Z" fill="#FFED00"/>
<path d="M123.934 270.313C124.359 270.313 124.571 269.888 124.571 269.463C124.146 180.151 129.141 90.9468 128.716 1.63574C128.716 1.21045 128.503 0.785156 128.291 0.785156C128.078 0.785156 127.972 1.10412 127.972 1.63574C128.291 90.9468 122.977 180.151 123.296 269.463C123.19 269.888 123.509 270.313 123.934 270.313Z" fill="#FFED00"/>
<path d="M115.752 270.314C116.177 270.314 116.389 269.995 116.389 269.57C116.496 180.259 123.935 91.1605 124.041 1.74316C124.041 1.31787 123.829 0.892578 123.722 0.892578C123.616 0.892578 123.404 1.21155 123.404 1.74316C123.191 91.0542 115.327 180.153 115.22 269.57C115.114 269.889 115.327 270.208 115.752 270.314Z" fill="#FFED00"/>
<path d="M107.567 270.313C107.992 270.207 108.205 269.888 108.205 269.463C108.843 180.045 118.832 91.0531 119.364 1.63574C119.364 1.21045 119.257 0.785156 119.045 0.785156C118.832 0.785156 118.726 1.10412 118.726 1.63574C118.088 91.0531 107.674 180.045 106.93 269.463C106.93 269.888 107.142 270.313 107.567 270.313Z" fill="#FFED00"/>
<path d="M99.3846 270.313C99.8097 270.313 100.022 269.888 100.022 269.463C101.191 180.045 113.625 91.1594 114.794 1.63574C114.794 1.21045 114.688 0.785156 114.476 0.785156C114.263 0.785156 114.157 1.10412 114.157 1.63574C112.988 91.1594 100.022 179.939 98.8533 269.463C98.747 269.888 98.9595 270.313 99.3846 270.313Z" fill="#FFED00"/>
<path d="M91.2021 270.313C91.6272 270.313 91.8397 269.888 91.8397 269.463C93.5401 179.939 108.419 91.2657 110.119 1.63574C110.119 1.21045 110.013 0.785156 109.8 0.785156C109.588 0.785156 109.481 1.10412 109.375 1.63574C107.675 91.2657 92.2648 179.833 90.5645 269.463C90.5645 269.994 90.8832 270.313 91.2021 270.313Z" fill="#FFED00"/>
<path d="M83.0185 270.313C83.4436 270.313 83.6562 269.888 83.6562 269.463C85.7816 179.726 103.211 91.3721 105.442 1.63574C105.442 1.21045 105.336 0.785156 105.124 0.785156C104.911 0.785156 104.698 1.10412 104.698 1.63574C102.467 91.3721 84.6126 179.726 82.3809 269.463C82.3809 269.994 82.6997 270.313 83.0185 270.313Z" fill="#FFED00"/>
<path d="M74.8358 270.313C75.2609 270.313 75.4734 269.888 75.4734 269.463C78.1303 179.62 97.8973 91.4784 100.554 1.63574C100.554 1.21045 100.448 0.785156 100.235 0.785156C100.023 0.785156 99.8102 1.10412 99.8102 1.63574C97.1534 91.4784 76.9613 179.62 74.3044 269.463C74.1982 269.888 74.4107 270.207 74.8358 270.313Z" fill="#FFED00"/>
<path d="M66.6521 270.313C67.0772 270.313 67.2898 269.888 67.2898 269.463C70.2654 179.514 92.4767 91.691 95.4524 1.63574C95.4524 1.21045 95.2399 0.785156 95.0273 0.785156C94.8148 0.785156 94.6022 1.10412 94.6022 1.63574C91.5203 91.5847 68.9902 179.407 65.9082 269.463C66.0145 269.888 66.227 270.207 66.6521 270.313Z" fill="#FFED00"/>
<path d="M58.4697 270.313C58.8948 270.313 59.1073 269.888 59.1073 269.463C62.4018 179.407 86.9512 91.7974 90.2457 1.63574C90.2457 1.21045 90.0331 0.785156 89.8206 0.785156C89.608 0.785156 89.3955 1.10412 89.3955 1.63574C85.9947 91.7974 61.1265 179.301 57.832 269.463C57.9383 269.888 58.1509 270.207 58.4697 270.313Z" fill="#FFED00"/>
<path d="M50.2866 270.313C50.7117 270.313 50.9242 269.888 50.9242 269.463C54.5376 179.195 81.3187 91.9037 84.8257 1.63574C84.8257 1.21045 84.6132 0.785156 84.4006 0.785156C84.1881 0.785156 83.9755 1.10412 83.9755 1.63574C80.3622 92.01 53.3685 179.195 49.7552 269.569C49.6489 269.994 49.9678 270.313 50.2866 270.313Z" fill="#FFED00"/>
<path d="M42.1025 270.313C42.5276 270.207 42.7401 269.888 42.7401 269.463C46.4597 179.088 75.26 92.1163 79.0859 1.63574C79.0859 1.21045 78.8734 0.785156 78.6608 0.785156C78.4483 0.785156 78.2357 1.10412 78.1295 1.63574C74.4099 92.1163 45.2907 178.982 41.4648 269.463C41.4648 269.994 41.7837 270.313 42.1025 270.313Z" fill="#FFED00"/>
<path d="M34.0274 270.313C34.4525 270.313 34.665 269.888 34.665 269.463C38.4909 178.876 69.3104 92.329 73.03 1.63574C73.03 1.21045 72.8175 0.785156 72.6049 0.785156C72.3924 0.785156 72.0736 1.10412 72.0736 1.63574C68.2477 92.2226 37.1093 178.769 33.3897 269.463C33.2835 269.888 33.6023 270.207 34.0274 270.313C33.9211 270.313 33.9211 270.313 34.0274 270.313Z" fill="#FFED00"/>
<path d="M25.8439 270.313C26.269 270.313 26.4815 269.888 26.4815 269.463C30.2011 178.769 62.9336 92.4353 66.6532 1.63574C66.6532 1.21045 66.4407 0.785156 66.1218 0.785156C65.803 0.785156 65.5905 1.10412 65.5905 1.63574C61.8709 92.4353 28.9259 178.663 25.2063 269.463C25.1 269.888 25.3125 270.207 25.8439 270.313C25.7376 270.313 25.7376 270.313 25.8439 270.313Z" fill="#FFED00"/>
</g>
<path d="M65.4832 268.399C59.5319 247.879 54.6433 187.381 63.3577 168.456C68.884 156.335 87.3757 148.361 101.935 143.895C111.5 140.918 121.809 141.343 131.054 145.171C138.706 148.254 145.827 152.614 151.99 158.036C159.005 164.415 163.149 173.346 163.574 182.703C164.531 204.074 166.125 255.428 160.174 270.632C152.628 290.089 127.016 296.362 112.988 297C112.563 297 112.138 297 111.713 297C98.2157 297.106 71.0095 287.537 65.4832 268.399ZM130.311 146.659C121.383 143.044 111.5 142.619 102.36 145.49C90.7765 149.105 70.3718 157.079 64.8456 169.2C56.4499 187.381 61.3385 248.091 67.0773 267.974C72.6036 286.899 100.129 296.043 112.882 295.405C126.485 294.767 151.247 288.707 158.473 270.1C164.212 255.215 162.618 204.074 161.768 182.809C161.343 173.772 157.41 165.372 150.715 159.312C144.764 153.889 137.856 149.636 130.311 146.659Z" fill="#FFED00"/>
<path d="M14.9335 194.092C23.9326 194.092 28.7755 199.21 28.7755 209.468V220.853H0.910156V209.512C0.910156 199.514 5.70967 194.092 14.9335 194.092ZM6.45003 214.238H23.2995V209.376C23.2995 203.491 20.6419 200.87 14.9411 200.87C9.15616 200.87 6.4577 203.534 6.4577 209.504L6.45003 214.238Z" fill="#FEFEFE"/>
<path d="M28.7653 168.445V188.635H0.910156V169.187H6.13858V182.031H12.2248V170.646H17.2311V182.031H23.5292V168.456L28.7653 168.445Z" fill="#FEFEFE"/>
<path d="M7.72259 146.032C7.72259 146.032 5.10838 150.971 5.10838 152.775C5.10838 155.654 6.30827 157.125 8.36594 157.125C13.3365 157.125 11.7077 142.777 20.5358 142.777C26.2799 142.777 29.5784 146.815 29.5784 153.781C29.5784 161.9 25.0801 164.82 25.0801 164.82L20.8039 161.531C20.8039 161.531 24.2325 158.266 24.2325 153.412C24.2325 150.533 22.9892 149.246 21.1025 149.246C16.4741 149.246 18.3607 163.591 8.80504 163.591C3.79106 163.591 0.191406 159.469 0.191406 153.069C0.191406 146.416 3.36214 143.962 3.36214 143.962L7.72259 146.032Z" fill="#FEFEFE"/>
<path d="M28.7653 130.646V137.261H0.910156V130.646H28.7653Z" fill="#FEFEFE"/>
<path d="M20.4929 104.231H17.7944V109.515H12.737V98.6035H28.7644V103.243L26.3213 104.01C28.1083 105.6 29.5788 108.005 29.5788 111.569C29.5788 120.462 23.9215 125.144 14.9223 125.144C6.09426 125.144 0.181641 119.561 0.181641 109.939C0.181641 102.895 3.52347 99.5861 3.52347 99.5861L7.89407 101.477C7.89407 101.477 5.66536 107.874 5.66536 109.379C5.66536 115.953 9.35179 118.399 14.9657 118.399C20.9651 118.399 24.0517 114.965 24.0517 110.154C24.0517 105.692 21.5217 104.532 20.4929 104.231Z" fill="#FEFEFE"/>
<path d="M28.7639 66V73.0011L9.43817 86.2332V86.3612L11.9222 86.1462H28.7716V91.8577H0.908805V84.9487L20.4516 71.6757V71.5886L18.5216 71.7191H0.90625V66.0051L28.7639 66Z" fill="#FEFEFE"/>
</svg>
